<?xml version="1.0" encoding="UTF-8" standalone="no"?>
<svg
   xmlns:dc="http://purl.org/dc/elements/1.1/"
   xmlns:cc="http://creativecommons.org/ns#"
   xmlns:rdf="http://www.w3.org/1999/02/22-rdf-syntax-ns#"
   xmlns:svg="http://www.w3.org/2000/svg"
   xmlns="http://www.w3.org/2000/svg"
   xmlns:sodipodi="http://sodipodi.sourceforge.net/DTD/sodipodi-0.dtd"
   xmlns:inkscape="http://www.inkscape.org/namespaces/inkscape"
   inkscape:version="1.0 (4035a4fb49, 2020-05-01)"
   sodipodi:docname="discord.svg"
   id="svg4"
   version="1.1"
   viewBox="0 0 16 16"
   class="bi bi-discord"
   fill="currentColor"
   height="16"
   width="16">
  <metadata
     id="metadata10">
    <rdf:RDF>
      <cc:Work
         rdf:about="">
        <dc:format>image/svg+xml</dc:format>
        <dc:type
           rdf:resource="http://purl.org/dc/dcmitype/StillImage" />
      </cc:Work>
    </rdf:RDF>
  </metadata>
  <defs
     id="defs8" />
  <sodipodi:namedview
     inkscape:current-layer="svg4"
     inkscape:window-maximized="1"
     inkscape:window-y="-8"
     inkscape:window-x="-8"
     inkscape:cy="8"
     inkscape:cx="8"
     inkscape:zoom="33.625"
     showgrid="false"
     id="namedview6"
     inkscape:window-height="705"
     inkscape:window-width="1366"
     inkscape:pageshadow="2"
     inkscape:pageopacity="0"
     guidetolerance="10"
     gridtolerance="10"
     objecttolerance="10"
     borderopacity="1"
     bordercolor="#666666"
     pagecolor="#ffffff" />
  <path
     style="fill:#5865f2;fill-opacity:1"
     sodipodi:nodetypes="ccccccccccccccccccccccccccccccccccsssscsssscs"
     id="path2"
     d="M 13.545,2.907 C 12.507508,2.4308674 11.412744,2.0910436 10.288,1.896 c -0.02088,-0.00352 -0.04171,0.0065 -0.052,0.025 C 10.095,2.171 9.939,2.498 9.83,2.754 8.6176075,2.5700086 7.3843925,2.5700086 6.172,2.754 6.0504116,2.4688199 5.9128605,2.190713 5.76,1.921 5.7494994,1.9027204 5.7288343,1.8927853 5.708,1.896 4.583,2.09 3.488,2.43 2.451,2.907 c -0.00887,0.00339 -0.016296,0.00975 -0.021,0.018 -2.074,3.099 -2.643,6.122 -2.364,9.107 0.001,0.014 0.01,0.028 0.021,0.037 1.2077242,0.894616 2.5585916,1.577658 3.995,2.02 0.020813,0.0066 0.04348,-0.0011 0.056,-0.019 0.308,-0.42 0.582,-0.863 0.818,-1.329 0.010102,-0.01971 0.00603,-0.04372 -0.01,-0.059 -0.00517,-0.0049 -0.011299,-0.0086 -0.018,-0.011 -0.4308392,-0.165579 -0.848105,-0.364516 -1.248,-0.595 -0.0232,-0.01315 -0.031999,-0.04219 -0.02,-0.066 0.0034,-0.0074 0.00855,-0.01396 0.015,-0.019 0.084,-0.063 0.168,-0.129 0.248,-0.195 0.014401,-0.01158 0.034012,-0.01427 0.051,-0.007 2.619,1.196 5.454,1.196 8.041,0 0.0176,-0.0076 0.03798,-0.0049 0.053,0.007 0.08,0.066 0.164,0.132 0.248,0.195 0.02952,0.02157 0.02742,0.06629 -0.004,0.085 -0.398982,0.232593 -0.816782,0.431291 -1.249,0.594 -0.01396,0.0051 -0.02495,0.01604 -0.03,0.03 -0.0047,0.0135 -0.0036,0.02833 0.003,0.041 0.24,0.465 0.515,0.909 0.817,1.329 0.01252,0.01788 0.03519,0.02557 0.056,0.019 1.438809,-0.440973 2.791873,-1.124099 4.001,-2.02 0.01227,-0.0085 0.02,-0.02211 0.021,-0.037 0.334,-3.451 -0.559,-6.449 -2.366,-9.106 -0.0037,-0.00887 -0.01095,-0.015777 -0.02,-0.019 z M 5.347,10.214 C 4.558,10.214 3.909,9.49 3.909,8.602 3.909,7.9629573 4.2381514,7.4091735 4.7207648,7.1482817 4.9095358,7.0462356 5.1217854,6.989 5.347,6.989 c 0.807,0 1.45,0.73 1.438,1.613 0,0.888 -0.637,1.612 -1.438,1.612 z m 5.316,0 c -0.788,0 -1.438,-0.724 -1.438,-1.612 0,-0.889 0.637,-1.613 1.438,-1.613 0.807,0 1.451,0.73 1.438,1.613 0,0.888 -0.631,1.612 -1.438,1.612 z" />
</svg>
