<?xml version="1.0" encoding="UTF-8" standalone="no"?>
<svg
   xmlns:dc="http://purl.org/dc/elements/1.1/"
   xmlns:cc="http://creativecommons.org/ns#"
   xmlns:rdf="http://www.w3.org/1999/02/22-rdf-syntax-ns#"
   xmlns:svg="http://www.w3.org/2000/svg"
   xmlns="http://www.w3.org/2000/svg"
   xmlns:sodipodi="http://sodipodi.sourceforge.net/DTD/sodipodi-0.dtd"
   xmlns:inkscape="http://www.inkscape.org/namespaces/inkscape"
   inkscape:version="1.0 (4035a4fb49, 2020-05-01)"
   sodipodi:docname="meta.svg"
   id="svg3599"
   version="1.1"
   viewBox="0 0 16 16"
   class="bi bi-meta"
   fill="currentColor"
   height="16"
   width="16">
  <metadata
     id="metadata3605">
    <rdf:RDF>
      <cc:Work
         rdf:about="">
        <dc:format>image/svg+xml</dc:format>
        <dc:type
           rdf:resource="http://purl.org/dc/dcmitype/StillImage" />
      </cc:Work>
    </rdf:RDF>
  </metadata>
  <defs
     id="defs3603" />
  <sodipodi:namedview
     inkscape:current-layer="svg3599"
     inkscape:window-maximized="1"
     inkscape:window-y="-8"
     inkscape:window-x="-8"
     inkscape:cy="8"
     inkscape:cx="8"
     inkscape:zoom="33.625"
     showgrid="false"
     id="namedview3601"
     inkscape:window-height="705"
     inkscape:window-width="1366"
     inkscape:pageshadow="2"
     inkscape:pageopacity="0"
     guidetolerance="10"
     gridtolerance="10"
     objecttolerance="10"
     borderopacity="1"
     bordercolor="#666666"
     pagecolor="#ffffff" />
  <path
     style="fill:#0668e1;fill-opacity:1"
     id="path3597"
     d="M8.217 5.243C9.145 3.988 10.171 3 11.483 3 13.96 3 16 6.153 16.001 9.907c0 2.29-.986 3.725-2.757 3.725-1.543 0-2.395-.866-3.924-3.424l-.667-1.123-.118-.197a54.944 54.944 0 0 0-.53-.877l-1.178 2.08c-1.673 2.925-2.615 3.541-3.923 3.541C1.086 13.632 0 12.217 0 9.973 0 6.388 1.995 3 4.598 3c.319 0 .625.039.924.122.31.086.611.22.913.407.577.359 1.154.915 1.782 1.714Zm1.516 2.224c-.252-.41-.494-.787-.727-1.133L9 6.326c.845-1.305 1.543-1.954 2.372-1.954 1.723 0 3.102 2.537 3.102 5.653 0 1.188-.39 1.877-1.195 1.877-.773 0-1.142-.51-2.61-2.87l-.937-1.565ZM4.846 4.756c.725.1 1.385.634 2.34 2.001A212.13 212.13 0 0 0 5.551 9.3c-1.357 2.126-1.826 2.603-2.581 2.603-.777 0-1.24-.682-1.24-1.9 0-2.602 1.298-5.264 2.846-5.264.091 0 .181.006.27.018Z"
     fill-rule="evenodd" />
</svg>
