<?xml version="1.0" standalone="no"?>
<!DOCTYPE svg PUBLIC "-//W3C//DTD SVG 20010904//EN"
 "http://www.w3.org/TR/2001/REC-SVG-20010904/DTD/svg10.dtd">
<svg version="1.0" xmlns="http://www.w3.org/2000/svg"
 width="260.000000pt" height="260.000000pt" viewBox="0 0 260.000000 260.000000"
 preserveAspectRatio="xMidYMid meet">
<metadata>
Created by potrace 1.14, written by Peter Selinger 2001-2017
</metadata>
<g transform="translate(0.000000,260.000000) scale(0.100000,-0.100000)"
fill="#000000" stroke="none">
<path d="M515 1947 c-75 -80 -143 -192 -200 -333 -66 -165 -80 -244 -80 -469
0 -188 0 -191 33 -295 53 -165 125 -295 210 -377 52 -51 95 -73 144 -74 28 0
30 -2 13 -10 -18 -8 -18 -8 5 -6 14 1 24 6 22 11 -2 5 18 21 45 36 26 16 70
50 96 77 48 50 75 106 132 278 13 39 24 65 24 58 1 -17 60 2 85 27 26 26 11
43 -39 44 -27 1 -35 5 -35 20 0 17 6 18 63 13 34 -3 72 -9 85 -13 19 -6 22 -3
22 25 0 48 -26 100 -55 111 -60 23 -303 7 -407 -26 -42 -14 -48 -19 -48 -43 0
-71 59 -96 181 -76 73 11 80 11 73 -4 -3 -9 -17 -60 -30 -115 -30 -122 -73
-214 -119 -255 -62 -54 -95 -38 -169 87 -63 105 -79 162 -77 282 2 180 31 349
81 475 46 115 126 282 154 318 14 19 26 43 26 55 0 22 -42 58 -57 49 -5 -3 -7
10 -5 30 l4 35 35 -34 c55 -52 74 -107 83 -236 8 -123 18 -146 71 -157 34 -8
59 8 59 35 0 10 7 17 16 16 42 -3 82 114 50 147 -14 13 -15 23 -6 59 7 26 8
59 3 82 -7 32 -14 41 -47 54 -39 15 -39 15 -61 -12 l-22 -28 -24 43 c-27 49
-73 83 -133 101 -23 7 -43 15 -46 20 -3 4 -26 14 -50 23 l-44 16 -61 -64z"/>
<path d="M1515 1938 c-28 -76 -39 -117 -56 -198 -11 -52 -25 -115 -31 -140
-16 -68 -16 -519 0 -615 31 -183 101 -465 122 -488 4 -4 27 -8 51 -9 24 -1 50
-6 57 -11 16 -13 38 6 45 39 2 14 -2 55 -10 92 -10 44 -14 120 -13 225 0 86
-4 184 -10 218 -16 89 21 228 113 422 38 81 73 147 77 147 4 0 1 -23 -6 -50
-24 -94 -46 -377 -39 -500 13 -221 41 -288 113 -274 21 4 32 3 32 -5 0 -18 48
-33 70 -21 20 11 26 25 91 229 l43 133 -17 46 c-16 46 -16 46 14 98 32 57 59
86 59 63 -1 -8 -7 -57 -14 -109 -18 -123 -13 -398 9 -506 31 -154 90 -301 117
-292 26 9 51 59 56 110 3 37 7 47 12 33 4 -12 10 18 14 75 4 52 14 146 22 208
18 143 18 209 -2 297 -8 39 -22 102 -30 140 -18 84 -53 142 -99 161 -19 8 -37
14 -41 14 -3 0 -41 -33 -83 -74 l-76 -74 0 97 c0 57 -5 104 -11 112 -6 8 -14
43 -18 78 -9 93 -29 121 -101 143 -37 11 -69 15 -83 10 -35 -11 -147 -216
-207 -380 -21 -56 -40 -101 -41 -99 -2 2 3 48 11 102 22 143 19 325 -4 311 -3
-2 -5 21 -3 52 3 44 -2 70 -22 113 -13 31 -32 63 -41 72 -19 20 -64 22 -70 5z"/>
</g>
</svg>
